<svg xmlns="http://www.w3.org/2000/svg" width="512" height="512" viewBox="0 0 512 512" role="img" aria-labelledby="title desc">
  <title id="title">Diamond ranked emblem</title>
  <desc id="desc">Original KH-inspired ranked emblem for Diamond tier.</desc>
  <defs>
    <linearGradient id="bg" x1="0" y1="0" x2="1" y2="1">
      <stop offset="0%" stop-color="#1b4e8b"/>
      <stop offset="100%" stop-color="#111b40"/>
    </linearGradient>
    <linearGradient id="edge" x1="0" y1="0" x2="1" y2="0">
      <stop offset="0%" stop-color="#ffffff" stop-opacity="0.15"/>
      <stop offset="50%" stop-color="#ffffff" stop-opacity="0.45"/>
      <stop offset="100%" stop-color="#ffffff" stop-opacity="0.15"/>
    </linearGradient>
  </defs>

  <rect width="512" height="512" rx="96" fill="#08111a"/>
  <rect x="20" y="20" width="472" height="472" rx="84" fill="url(#bg)"/>

  <path d="M256 58l45 81 92 18-65 65 12 95-84-42-84 42 12-95-65-65 92-18z" fill="#7fc3ff" fill-opacity="0.15"/>
  <path d="M256 94l34 61 70 14-49 50 9 71-64-32-64 32 9-71-49-50 70-14z" fill="#7fc3ff" stroke="url(#edge)" stroke-width="8"/>
  <path d="M128 320l64-38 64 30 64-30 64 38-47 43h-58l-23 22-23-22h-58z" fill="#7fc3ff" fill-opacity="0.94" stroke="#0b151f" stroke-width="10"/>

  <circle cx="256" cy="220" r="34" fill="#fff" fill-opacity="0.15"/>
  <text x="256" y="444" text-anchor="middle" fill="#f6f7fb" font-size="42" font-family="Cinzel, serif" letter-spacing="4">DIAMOND</text>
</svg>
