<svg width="640" height="900" viewBox="0 0 640 900" xmlns="http://www.w3.org/2000/svg" role="img" aria-labelledby="title desc">
  <title id="title">Epic Pack</title>
  <desc id="desc">Pokemon-inspired epic booster pack with Master Ball emblem.</desc>
  <defs>
    <linearGradient id="bg" x1="0" y1="0" x2="1" y2="1">
      <stop offset="0%" stop-color="#1e1235"/>
      <stop offset="56%" stop-color="#4f2380"/>
      <stop offset="100%" stop-color="#8e37b6"/>
    </linearGradient>
    <linearGradient id="foil" x1="0" y1="0" x2="1" y2="1">
      <stop offset="0%" stop-color="#f2d6ff"/>
      <stop offset="100%" stop-color="#de8dfb"/>
    </linearGradient>
    <radialGradient id="glow" cx="50%" cy="42%" r="44%">
      <stop offset="0%" stop-color="#ef9dff" stop-opacity="0.62"/>
      <stop offset="100%" stop-color="#ef9dff" stop-opacity="0"/>
    </radialGradient>
  </defs>

  <rect x="0" y="0" width="640" height="900" rx="36" fill="url(#bg)"/>
  <rect x="18" y="18" width="604" height="864" rx="28" fill="none" stroke="#f0c6ff" stroke-opacity="0.52" stroke-width="3"/>
  <ellipse cx="320" cy="360" rx="250" ry="200" fill="url(#glow)"/>

  <g stroke="#f5d7ff" stroke-opacity="0.56" fill="none">
    <path d="M64 190 L576 190"/>
    <path d="M64 530 L576 530"/>
    <path d="M126 118 L514 118 L566 170 L566 550 L514 602 L126 602 L74 550 L74 170 Z" stroke-width="3"/>
  </g>

  <g transform="translate(320 330)">
    <circle r="100" fill="none" stroke="url(#foil)" stroke-width="12"/>
    <circle r="76" fill="#efefef" stroke="#161616" stroke-width="6"/>
    <path d="M-76 0 A76 76 0 0 1 76 0 L76 -76 L-76 -76 Z" fill="#7f4abd"/>
    <rect x="-76" y="-6" width="152" height="12" fill="#171717"/>
    <circle cx="-34" cy="-50" r="10" fill="#f59fe7"/>
    <circle cx="34" cy="-50" r="10" fill="#f59fe7"/>
    <path d="M-20 -62 L0 -34 L20 -62 L30 -48 L0 -42 L-30 -48 Z" fill="#fff4ff"/>
    <circle r="22" fill="#171717"/>
    <circle r="14" fill="#f2f2f2"/>
  </g>

  <g fill="#fdeeff" font-family="Rajdhani, sans-serif" text-anchor="middle">
    <text x="320" y="664" font-size="72" font-weight="700" letter-spacing="8">EPIC</text>
    <text x="320" y="730" font-size="40" font-weight="600" letter-spacing="6">TRIPLE TRIAD</text>
  </g>

  <circle cx="320" cy="572" r="28" fill="#fce0ff"/>
  <circle cx="320" cy="572" r="14" fill="#bb6de2"/>
</svg>
