<svg width="640" height="900" viewBox="0 0 640 900" xmlns="http://www.w3.org/2000/svg" role="img" aria-labelledby="title desc">
  <title id="title">Legendary Focus Pack</title>
  <desc id="desc">A radiant target-themed pack for legendary focus openings.</desc>
  <defs>
    <linearGradient id="bg" x1="0" y1="0" x2="1" y2="1">
      <stop offset="0%" stop-color="#281914"/>
      <stop offset="46%" stop-color="#614022"/>
      <stop offset="100%" stop-color="#d08c3e"/>
    </linearGradient>
    <linearGradient id="foil" x1="0" y1="0" x2="1" y2="1">
      <stop offset="0%" stop-color="#fff2cf"/>
      <stop offset="52%" stop-color="#f5c875"/>
      <stop offset="100%" stop-color="#d58d34"/>
    </linearGradient>
    <radialGradient id="shine" cx="32%" cy="18%" r="72%">
      <stop offset="0%" stop-color="#ffeec5" stop-opacity="0.82"/>
      <stop offset="100%" stop-color="#ffeec5" stop-opacity="0"/>
    </radialGradient>
  </defs>

  <rect x="0" y="0" width="640" height="900" rx="36" fill="url(#bg)"/>
  <rect x="24" y="24" width="592" height="852" rx="28" fill="none" stroke="#ffd892" stroke-opacity="0.68" stroke-width="4"/>
  <ellipse cx="178" cy="165" rx="220" ry="182" fill="url(#shine)"/>

  <g fill="none" stroke="#ffe8c2" stroke-opacity="0.76" stroke-width="6">
    <path d="M120 180 L320 100 L520 180 L520 420 L320 500 L120 420 Z"/>
    <path d="M165 250 L320 190 L475 250 L475 380 L320 440 L165 380 Z" stroke-opacity="0.5"/>
  </g>

  <g transform="translate(320 324)">
    <circle r="88" fill="none" stroke="#ffdca0" stroke-opacity="0.6" stroke-width="4"/>
    <circle r="62" fill="none" stroke="#f8cc7d" stroke-opacity="0.58" stroke-width="6"/>
    <circle r="38" fill="none" stroke="#f5c26a" stroke-opacity="0.64" stroke-width="4"/>
    <path d="M-74 0 H74 M0 -74 V74" stroke="#f9d18b" stroke-opacity="0.5" stroke-width="3"/>
    <path d="M-56 28 H56 V52 H-56 Z" fill="url(#foil)"/>
    <path d="M-70 20 L-42 -28 L0 8 L42 -28 L70 20" fill="none" stroke="url(#foil)" stroke-width="10" stroke-linecap="round" stroke-linejoin="round"/>
    <circle cx="-42" cy="-28" r="8" fill="#ffe7b8"/>
    <circle cx="0" cy="8" r="9" fill="#ffe7b8"/>
    <circle cx="42" cy="-28" r="8" fill="#ffe7b8"/>
  </g>

  <g fill="#fff2d8">
    <circle cx="246" cy="240" r="4"/>
    <circle cx="274" cy="224" r="4"/>
    <circle cx="298" cy="214" r="4"/>
    <circle cx="320" cy="210" r="4"/>
    <circle cx="342" cy="214" r="4"/>
    <circle cx="366" cy="224" r="4"/>
    <circle cx="394" cy="240" r="4"/>
  </g>

  <g fill="#fff3dc" font-family="Rajdhani, sans-serif" text-anchor="middle">
    <text x="320" y="638" font-size="62" font-weight="700" letter-spacing="7">LEGENDARY</text>
    <text x="320" y="700" font-size="52" font-weight="700" letter-spacing="6">FOCUS PACK</text>
    <text x="320" y="754" font-size="34" font-weight="600" letter-spacing="6">TRIPLE TRIAD</text>
  </g>

  <circle cx="320" cy="554" r="28" fill="#ffefcb" fill-opacity="0.95"/>
  <circle cx="320" cy="554" r="12" fill="#da8f36"/>
  <circle cx="320" cy="554" r="4" fill="#fff2d4"/>
</svg>
