<svg width="640" height="900" viewBox="0 0 640 900" xmlns="http://www.w3.org/2000/svg" role="img" aria-labelledby="title desc">
  <title id="title">Legendary Pack</title>
  <desc id="desc">Pokemon-inspired legendary booster pack with exalted Master Ball emblem.</desc>
  <defs>
    <linearGradient id="bg" x1="0" y1="0" x2="1" y2="1">
      <stop offset="0%" stop-color="#1a2249"/>
      <stop offset="52%" stop-color="#2d3f87"/>
      <stop offset="100%" stop-color="#a16421"/>
    </linearGradient>
    <linearGradient id="foil" x1="0" y1="0" x2="1" y2="1">
      <stop offset="0%" stop-color="#fff2c8"/>
      <stop offset="100%" stop-color="#e7b85a"/>
    </linearGradient>
    <radialGradient id="glow" cx="50%" cy="42%" r="44%">
      <stop offset="0%" stop-color="#ffe4a0" stop-opacity="0.66"/>
      <stop offset="100%" stop-color="#ffe4a0" stop-opacity="0"/>
    </radialGradient>
  </defs>

  <rect x="0" y="0" width="640" height="900" rx="36" fill="url(#bg)"/>
  <rect x="18" y="18" width="604" height="864" rx="28" fill="none" stroke="#ffe0a5" stroke-opacity="0.56" stroke-width="3"/>
  <ellipse cx="320" cy="360" rx="250" ry="200" fill="url(#glow)"/>

  <g stroke="#ffe8bc" stroke-opacity="0.58" fill="none">
    <path d="M64 190 L576 190"/>
    <path d="M64 530 L576 530"/>
    <path d="M126 118 L514 118 L566 170 L566 550 L514 602 L126 602 L74 550 L74 170 Z" stroke-width="3"/>
  </g>

  <g transform="translate(320 330)">
    <circle r="112" fill="none" stroke="url(#foil)" stroke-width="10" opacity="0.8"/>
    <circle r="100" fill="none" stroke="url(#foil)" stroke-width="12"/>
    <circle r="76" fill="#efefef" stroke="#161616" stroke-width="6"/>
    <path d="M-76 0 A76 76 0 0 1 76 0 L76 -76 L-76 -76 Z" fill="#5e3da7"/>
    <rect x="-76" y="-6" width="152" height="12" fill="#171717"/>
    <circle cx="-34" cy="-50" r="10" fill="#f2a6de"/>
    <circle cx="34" cy="-50" r="10" fill="#f2a6de"/>
    <path d="M-20 -62 L0 -34 L20 -62 L30 -48 L0 -42 L-30 -48 Z" fill="#fff6ff"/>
    <circle r="22" fill="#171717"/>
    <circle r="14" fill="#f2f2f2"/>
  </g>

  <g fill="#fff4dd" font-family="Rajdhani, sans-serif" text-anchor="middle">
    <text x="320" y="660" font-size="64" font-weight="700" letter-spacing="7">LEGENDARY</text>
    <text x="320" y="728" font-size="40" font-weight="600" letter-spacing="6">TRIPLE TRIAD</text>
  </g>

  <circle cx="320" cy="572" r="28" fill="#ffedc7"/>
  <circle cx="320" cy="572" r="14" fill="#d8993d"/>
</svg>
