<svg width="720" height="420" viewBox="0 0 720 420" xmlns="http://www.w3.org/2000/svg" role="img" aria-labelledby="title desc">
  <title id="title">Uncommon Pack Artwork</title>
  <desc id="desc">An emerald KH Triple Triad pack with a winged crystal crest.</desc>
  <defs>
    <linearGradient id="bg" x1="0" y1="0" x2="1" y2="1">
      <stop offset="0%" stop-color="#16262a"/>
      <stop offset="55%" stop-color="#1f3d3b"/>
      <stop offset="100%" stop-color="#12272d"/>
    </linearGradient>
    <linearGradient id="foil" x1="0" y1="0" x2="1" y2="1">
      <stop offset="0%" stop-color="#b9f3d1"/>
      <stop offset="50%" stop-color="#6ab289"/>
      <stop offset="100%" stop-color="#3f7e5d"/>
    </linearGradient>
    <radialGradient id="glow" cx="0.5" cy="0.42" r="0.62">
      <stop offset="0%" stop-color="#9de5c6" stop-opacity="0.48"/>
      <stop offset="100%" stop-color="#9de5c6" stop-opacity="0"/>
    </radialGradient>
  </defs>

  <rect width="720" height="420" rx="26" fill="url(#bg)"/>
  <rect x="12" y="12" width="696" height="396" rx="22" fill="none" stroke="#62a784" stroke-opacity="0.82"/>
  <rect x="26" y="26" width="668" height="368" rx="18" fill="url(#glow)"/>

  <g transform="translate(360 188)">
    <circle r="100" fill="#14262a" stroke="#88d3b0" stroke-width="8"/>
    <circle r="76" fill="none" stroke="#88d3b0" stroke-opacity="0.54" stroke-width="3"/>
    <path d="M0 -56 L26 -4 L0 52 L-26 -4 Z" fill="url(#foil)"/>
    <path d="M-88 6 L-34 -18 L-26 0 L-34 18 Z" fill="#79be99"/>
    <path d="M88 6 L34 -18 L26 0 L34 18 Z" fill="#79be99"/>
    <circle r="12" fill="#0f2124" stroke="#a7e8ca" stroke-width="2"/>
  </g>

  <g fill="#c6eed8">
    <circle cx="234" cy="100" r="6"/>
    <circle cx="272" cy="82" r="6"/>
    <circle cx="312" cy="68" r="6"/>
    <circle cx="408" cy="68" r="6"/>
    <circle cx="448" cy="82" r="6"/>
    <circle cx="486" cy="100" r="6"/>
  </g>

  <text x="360" y="326" text-anchor="middle" fill="#daf6e8" font-family="Cinzel, serif" font-size="54" font-weight="700" letter-spacing="7">UNCOMMON</text>
  <text x="360" y="360" text-anchor="middle" fill="#9fd6bb" font-family="Rajdhani, sans-serif" font-size="24" font-weight="700" letter-spacing="4">TACTICAL BLOOM</text>
</svg>
